# xmcd CD database file
# Copyright (C) 1997 Ti Kan
#
# Track frame offsets:
#  182
#  22935
#  36017
#  58032
#  72590
#  94520
#  109145
#  137510
#  163080
#  194380
#  206302
#  220530
#  233182
#  238537
#  251660
#  260025
#  268222
#  280302
#  289412
#  300722
#  310910
#  324137
#
# Disc length: 4440 seconds
#
# Revision: 1
# Processed by: cddbd v1.4b41PL1 Copyright (c) Steve Scherf et al.
# Submitted via: CDWizzard Release:4.32
#
DISCID=44115616
DTITLE=Chris Isaak - Sugar Hips
DYEAR=1900
DGENRE=
TTITLE0=YOU OWE ME SOME KIND OF LOVE
TTITLE1=SOMEBODY'S CRYING
TTITLE2=TWO HEARTS
TTITLE3=GOIN' NOWHERE
TTITLE4=WICKED GAME
TTITLE5=I BELIEVE
TTITLE6=BABY DID A BAD BAD THING
TTITLE7=I WANT YOUR LOVE
TTITLE8=DIDDLY DADDY
TTITLE9=SOMEBODY'S CRYING
TTITLE10=GRADUATION DAY
TTITLE11=FOREVER BLUDE
TTITLE12=BLUE DAY, BLACK NIGHTS
TTITLE13=WICKED GAMES
TTITLE14=BLUE DARLING
TTITLE15=BABY DID A BAD BAD THING
TTITLE16=DEVIL WOMAN
TTITLE17=(SPANISH SONG)
TTITLE18=SOLITARY MAN
TTITLE19=BEAUTIFUL HOLMES
TTITLE20=WICKED GAMES
TTITLE21=5:15
EXTD=
EXTT0=
EXTT1=
EXTT2=
EXTT3=
EXTT4=
EXTT5=
EXTT6=
EXTT7=
EXTT8=
EXTT9=
EXTT10=
EXTT11=
EXTT12=
EXTT13=
EXTT14=
EXTT15=
EXTT16=
EXTT17=
EXTT18=
EXTT19=
EXTT20=
EXTT21=
PLAYORDER=
